<mxfile host="app.diagrams.net" modified="2021-04-15T12:07:46.292Z" agent="5.0 (Windows)" etag="ld0LaJKpyRuuRRpZBLjm" version="14.6.0" type="github">
  <diagram id="nbhcu0MmIbXkWlSyhZsp" name="Page-1">
    <mxGraphModel dx="1422" dy="791" grid="1" gridSize="10" guides="1" tooltips="1" connect="1" arrows="1" fold="1" page="1" pageScale="1" pageWidth="850" pageHeight="1100" math="0" shadow="0">
      <root>
        <mxCell id="0" />
        <mxCell id="1" parent="0" />
        <mxCell id="EpFmT0ryAusN3MEgj6C2-1" value="" style="aspect=fixed;pointerEvents=1;shadow=0;dashed=0;html=1;strokeColor=none;labelPosition=center;verticalLabelPosition=bottom;verticalAlign=top;align=center;fillColor=#00188D;shape=mxgraph.mscae.enterprise.folder" vertex="1" parent="1">
          <mxGeometry x="130" y="170" width="50" height="43" as="geometry" />
        </mxCell>
        <mxCell id="EpFmT0ryAusN3MEgj6C2-2" value="chracterRoster = [&quot;gran&quot;, &quot;djeeta&quot;, &quot;zeta&quot;, &quot;ferry&quot;, &quot;katalina&quot;, &quot;zooey&quot;]" style="text;html=1;align=center;verticalAlign=middle;resizable=0;points=[];autosize=1;strokeColor=none;" vertex="1" parent="1">
          <mxGeometry x="300" y="140" width="370" height="20" as="geometry" />
        </mxCell>
        <mxCell id="EpFmT0ryAusN3MEgj6C2-3" value="" style="endArrow=classic;html=1;" edge="1" parent="1" source="EpFmT0ryAusN3MEgj6C2-1">
          <mxGeometry width="50" height="50" relative="1" as="geometry">
            <mxPoint x="250" y="240" as="sourcePoint" />
            <mxPoint x="300" y="190" as="targetPoint" />
          </mxGeometry>
        </mxCell>
        <mxCell id="EpFmT0ryAusN3MEgj6C2-4" value="&lt;div style=&quot;font-size: 46px&quot;&gt;&lt;font style=&quot;font-size: 46px&quot;&gt;gran_fd.cvs&lt;/font&gt;&lt;/div&gt;&lt;div style=&quot;font-size: 46px&quot;&gt;&lt;font style=&quot;font-size: 46px&quot;&gt;djeeta_fd.cvs&lt;/font&gt;&lt;/div&gt;&lt;div style=&quot;font-size: 46px&quot;&gt;&lt;font style=&quot;font-size: 46px&quot;&gt;zeta_fd.cvs&lt;/font&gt;&lt;/div&gt;&lt;div style=&quot;font-size: 46px&quot;&gt;&lt;font style=&quot;font-size: 46px&quot;&gt;ferry_fd.cvs&lt;/font&gt;&lt;/div&gt;&lt;div style=&quot;font-size: 46px&quot;&gt;&lt;font style=&quot;font-size: 46px&quot;&gt;katalina_fd.cvs&lt;/font&gt;&lt;/div&gt;&lt;div style=&quot;font-size: 46px&quot;&gt;&lt;font style=&quot;font-size: 46px&quot;&gt;zooey_fd.csv&lt;br&gt;&lt;/font&gt;&lt;/div&gt;" style="whiteSpace=wrap;html=1;aspect=fixed;align=left;" vertex="1" parent="1">
          <mxGeometry x="300" y="190" width="370" height="370" as="geometry" />
        </mxCell>
        <mxCell id="EpFmT0ryAusN3MEgj6C2-7" value="" style="verticalLabelPosition=bottom;html=1;verticalAlign=top;align=center;strokeColor=none;fillColor=#00BEF2;shape=mxgraph.azure.file_2;pointerEvents=1;" vertex="1" parent="1">
          <mxGeometry x="550" y="200" width="47.5" height="50" as="geometry" />
        </mxCell>
        <mxCell id="EpFmT0ryAusN3MEgj6C2-8" value="" style="verticalLabelPosition=bottom;html=1;verticalAlign=top;align=center;strokeColor=none;fillColor=#00BEF2;shape=mxgraph.azure.file_2;pointerEvents=1;" vertex="1" parent="1">
          <mxGeometry x="580" y="260" width="47.5" height="50" as="geometry" />
        </mxCell>
        <mxCell id="EpFmT0ryAusN3MEgj6C2-9" value="" style="verticalLabelPosition=bottom;html=1;verticalAlign=top;align=center;strokeColor=none;fillColor=#00BEF2;shape=mxgraph.azure.file_2;pointerEvents=1;" vertex="1" parent="1">
          <mxGeometry x="540" y="320" width="47.5" height="50" as="geometry" />
        </mxCell>
        <mxCell id="EpFmT0ryAusN3MEgj6C2-10" value="" style="verticalLabelPosition=bottom;html=1;verticalAlign=top;align=center;strokeColor=none;fillColor=#00BEF2;shape=mxgraph.azure.file_2;pointerEvents=1;" vertex="1" parent="1">
          <mxGeometry x="550" y="380" width="47.5" height="50" as="geometry" />
        </mxCell>
        <mxCell id="EpFmT0ryAusN3MEgj6C2-11" value="" style="verticalLabelPosition=bottom;html=1;verticalAlign=top;align=center;strokeColor=none;fillColor=#00BEF2;shape=mxgraph.azure.file_2;pointerEvents=1;" vertex="1" parent="1">
          <mxGeometry x="610" y="420" width="47.5" height="50" as="geometry" />
        </mxCell>
        <mxCell id="EpFmT0ryAusN3MEgj6C2-12" value="" style="verticalLabelPosition=bottom;html=1;verticalAlign=top;align=center;strokeColor=none;fillColor=#00BEF2;shape=mxgraph.azure.file_2;pointerEvents=1;" vertex="1" parent="1">
          <mxGeometry x="581" y="500" width="47.5" height="50" as="geometry" />
        </mxCell>
        <mxCell id="EpFmT0ryAusN3MEgj6C2-13" value="&lt;b&gt;Carpeta de Frame Data de Todos Personajes&lt;/b&gt;" style="text;html=1;align=center;verticalAlign=middle;resizable=0;points=[];autosize=1;strokeColor=none;" vertex="1" parent="1">
          <mxGeometry x="25" y="140" width="270" height="20" as="geometry" />
        </mxCell>
        <mxCell id="EpFmT0ryAusN3MEgj6C2-14" value="" style="aspect=fixed;pointerEvents=1;shadow=0;dashed=0;html=1;strokeColor=none;labelPosition=center;verticalLabelPosition=bottom;verticalAlign=top;align=center;fillColor=#00188D;shape=mxgraph.mscae.enterprise.folder" vertex="1" parent="1">
          <mxGeometry x="180" y="890" width="50" height="43" as="geometry" />
        </mxCell>
        <mxCell id="EpFmT0ryAusN3MEgj6C2-15" value="&lt;b&gt;Carpeta de Fotos de Personajes&lt;br&gt;&lt;/b&gt;" style="text;html=1;align=center;verticalAlign=middle;resizable=0;points=[];autosize=1;strokeColor=none;" vertex="1" parent="1">
          <mxGeometry x="106" y="850" width="200" height="20" as="geometry" />
        </mxCell>
        <mxCell id="EpFmT0ryAusN3MEgj6C2-16" value="" style="endArrow=classic;html=1;exitX=1;exitY=0.5;exitDx=0;exitDy=0;exitPerimeter=0;" edge="1" parent="1" source="EpFmT0ryAusN3MEgj6C2-14">
          <mxGeometry width="50" height="50" relative="1" as="geometry">
            <mxPoint x="420" y="910" as="sourcePoint" />
            <mxPoint x="370" y="912" as="targetPoint" />
          </mxGeometry>
        </mxCell>
        <mxCell id="EpFmT0ryAusN3MEgj6C2-17" value="&lt;div style=&quot;font-size: 46px&quot; align=&quot;left&quot;&gt;&lt;font style=&quot;font-size: 46px&quot;&gt;gran_move_images&lt;/font&gt;&lt;/div&gt;&lt;div style=&quot;font-size: 46px&quot; align=&quot;left&quot;&gt;&lt;font style=&quot;font-size: 46px&quot;&gt;&lt;br&gt;&lt;/font&gt;&lt;/div&gt;&lt;div style=&quot;font-size: 46px&quot; align=&quot;left&quot;&gt;&lt;font style=&quot;font-size: 46px&quot;&gt;djeeta_move_images&lt;/font&gt;&lt;/div&gt;&lt;div style=&quot;font-size: 46px&quot; align=&quot;left&quot;&gt;&lt;font style=&quot;font-size: 46px&quot;&gt;&lt;/font&gt;&lt;br&gt;&lt;div style=&quot;font-size: 46px&quot; align=&quot;left&quot;&gt;&lt;font style=&quot;font-size: 46px&quot;&gt;zeta_move_images&lt;/font&gt;&lt;/div&gt;&lt;div style=&quot;font-size: 46px&quot; align=&quot;left&quot;&gt;&lt;font style=&quot;font-size: 46px&quot;&gt;&lt;/font&gt;&lt;br&gt;&lt;div style=&quot;font-size: 46px&quot; align=&quot;left&quot;&gt;&lt;font style=&quot;font-size: 46px&quot;&gt;ferry_move_images&lt;/font&gt;&lt;/div&gt;&lt;div style=&quot;font-size: 46px&quot; align=&quot;left&quot;&gt;&lt;font style=&quot;font-size: 46px&quot;&gt;&lt;/font&gt;&lt;br&gt;&lt;div style=&quot;font-size: 46px&quot; align=&quot;left&quot;&gt;&lt;font style=&quot;font-size: 46px&quot;&gt;katalina_move_images&lt;/font&gt;&lt;/div&gt;&lt;div style=&quot;font-size: 46px&quot; align=&quot;left&quot;&gt;&lt;font style=&quot;font-size: 46px&quot;&gt;&lt;/font&gt;&lt;br&gt;&lt;div style=&quot;font-size: 46px&quot; align=&quot;left&quot;&gt;&lt;font style=&quot;font-size: 46px&quot;&gt;zooey_move_images&lt;/font&gt;&lt;/div&gt;&lt;div style=&quot;font-size: 46px&quot; align=&quot;left&quot;&gt;&lt;font style=&quot;font-size: 46px&quot;&gt;&lt;br&gt;&lt;/font&gt;&lt;/div&gt;&lt;div style=&quot;font-size: 46px&quot; align=&quot;left&quot;&gt;&lt;font style=&quot;font-size: 46px&quot;&gt;character_select_images&lt;br&gt;&lt;/font&gt;&lt;/div&gt;&lt;/div&gt;&lt;/div&gt;&lt;/div&gt;&lt;/div&gt;" style="whiteSpace=wrap;html=1;aspect=fixed;align=left;" vertex="1" parent="1">
          <mxGeometry x="367.5" y="919" width="720" height="720" as="geometry" />
        </mxCell>
        <mxCell id="EpFmT0ryAusN3MEgj6C2-18" value="" style="aspect=fixed;pointerEvents=1;shadow=0;dashed=0;html=1;strokeColor=none;labelPosition=center;verticalLabelPosition=bottom;verticalAlign=top;align=center;fillColor=#00188D;shape=mxgraph.mscae.enterprise.folder" vertex="1" parent="1">
          <mxGeometry x="790" y="940" width="50" height="43" as="geometry" />
        </mxCell>
        <mxCell id="EpFmT0ryAusN3MEgj6C2-30" style="edgeStyle=orthogonalEdgeStyle;rounded=0;orthogonalLoop=1;jettySize=auto;html=1;" edge="1" parent="1" source="EpFmT0ryAusN3MEgj6C2-19" target="EpFmT0ryAusN3MEgj6C2-28">
          <mxGeometry relative="1" as="geometry" />
        </mxCell>
        <mxCell id="EpFmT0ryAusN3MEgj6C2-19" value="" style="aspect=fixed;pointerEvents=1;shadow=0;dashed=0;html=1;strokeColor=none;labelPosition=center;verticalLabelPosition=bottom;verticalAlign=top;align=center;fillColor=#00188D;shape=mxgraph.mscae.enterprise.folder" vertex="1" parent="1">
          <mxGeometry x="820" y="1048.5" width="50" height="43" as="geometry" />
        </mxCell>
        <mxCell id="EpFmT0ryAusN3MEgj6C2-32" style="edgeStyle=orthogonalEdgeStyle;rounded=0;orthogonalLoop=1;jettySize=auto;html=1;" edge="1" parent="1" source="EpFmT0ryAusN3MEgj6C2-20" target="EpFmT0ryAusN3MEgj6C2-31">
          <mxGeometry relative="1" as="geometry" />
        </mxCell>
        <mxCell id="EpFmT0ryAusN3MEgj6C2-20" value="" style="aspect=fixed;pointerEvents=1;shadow=0;dashed=0;html=1;strokeColor=none;labelPosition=center;verticalLabelPosition=bottom;verticalAlign=top;align=center;fillColor=#00188D;shape=mxgraph.mscae.enterprise.folder" vertex="1" parent="1">
          <mxGeometry x="780" y="1157" width="50" height="43" as="geometry" />
        </mxCell>
        <mxCell id="EpFmT0ryAusN3MEgj6C2-34" style="edgeStyle=orthogonalEdgeStyle;rounded=0;orthogonalLoop=1;jettySize=auto;html=1;entryX=0;entryY=0.5;entryDx=0;entryDy=0;" edge="1" parent="1" source="EpFmT0ryAusN3MEgj6C2-21" target="EpFmT0ryAusN3MEgj6C2-33">
          <mxGeometry relative="1" as="geometry" />
        </mxCell>
        <mxCell id="EpFmT0ryAusN3MEgj6C2-21" value="" style="aspect=fixed;pointerEvents=1;shadow=0;dashed=0;html=1;strokeColor=none;labelPosition=center;verticalLabelPosition=bottom;verticalAlign=top;align=center;fillColor=#00188D;shape=mxgraph.mscae.enterprise.folder" vertex="1" parent="1">
          <mxGeometry x="790" y="1270" width="50" height="43" as="geometry" />
        </mxCell>
        <mxCell id="EpFmT0ryAusN3MEgj6C2-36" style="edgeStyle=orthogonalEdgeStyle;rounded=0;orthogonalLoop=1;jettySize=auto;html=1;" edge="1" parent="1" source="EpFmT0ryAusN3MEgj6C2-22" target="EpFmT0ryAusN3MEgj6C2-35">
          <mxGeometry relative="1" as="geometry" />
        </mxCell>
        <mxCell id="EpFmT0ryAusN3MEgj6C2-22" value="" style="aspect=fixed;pointerEvents=1;shadow=0;dashed=0;html=1;strokeColor=none;labelPosition=center;verticalLabelPosition=bottom;verticalAlign=top;align=center;fillColor=#00188D;shape=mxgraph.mscae.enterprise.folder" vertex="1" parent="1">
          <mxGeometry x="850" y="1380" width="50" height="43" as="geometry" />
        </mxCell>
        <mxCell id="EpFmT0ryAusN3MEgj6C2-38" style="edgeStyle=orthogonalEdgeStyle;rounded=0;orthogonalLoop=1;jettySize=auto;html=1;" edge="1" parent="1" source="EpFmT0ryAusN3MEgj6C2-23" target="EpFmT0ryAusN3MEgj6C2-37">
          <mxGeometry relative="1" as="geometry" />
        </mxCell>
        <mxCell id="EpFmT0ryAusN3MEgj6C2-23" value="" style="aspect=fixed;pointerEvents=1;shadow=0;dashed=0;html=1;strokeColor=none;labelPosition=center;verticalLabelPosition=bottom;verticalAlign=top;align=center;fillColor=#00188D;shape=mxgraph.mscae.enterprise.folder" vertex="1" parent="1">
          <mxGeometry x="850" y="1490" width="50" height="43" as="geometry" />
        </mxCell>
        <mxCell id="EpFmT0ryAusN3MEgj6C2-24" value="" style="endArrow=classic;html=1;exitX=1;exitY=0.5;exitDx=0;exitDy=0;exitPerimeter=0;" edge="1" parent="1" source="EpFmT0ryAusN3MEgj6C2-18" target="EpFmT0ryAusN3MEgj6C2-26">
          <mxGeometry width="50" height="50" relative="1" as="geometry">
            <mxPoint x="940" y="1080" as="sourcePoint" />
            <mxPoint x="1010" y="990" as="targetPoint" />
          </mxGeometry>
        </mxCell>
        <mxCell id="EpFmT0ryAusN3MEgj6C2-26" value="Character(&quot;gran&quot;).moves.png" style="rounded=0;whiteSpace=wrap;html=1;" vertex="1" parent="1">
          <mxGeometry x="1140" y="931.5" width="170" height="60" as="geometry" />
        </mxCell>
        <mxCell id="EpFmT0ryAusN3MEgj6C2-28" value="Character(&quot;djeeta&quot;).moves.png" style="rounded=0;whiteSpace=wrap;html=1;" vertex="1" parent="1">
          <mxGeometry x="1140" y="1040" width="170" height="60" as="geometry" />
        </mxCell>
        <mxCell id="EpFmT0ryAusN3MEgj6C2-31" value="Character(&quot;zeta&quot;).moves.png" style="rounded=0;whiteSpace=wrap;html=1;" vertex="1" parent="1">
          <mxGeometry x="1140" y="1148.5" width="170" height="60" as="geometry" />
        </mxCell>
        <mxCell id="EpFmT0ryAusN3MEgj6C2-33" value="&lt;div&gt;Character(&quot;ferry&quot;).moves.png&lt;/div&gt;" style="rounded=0;whiteSpace=wrap;html=1;" vertex="1" parent="1">
          <mxGeometry x="1140" y="1261.5" width="170" height="60" as="geometry" />
        </mxCell>
        <mxCell id="EpFmT0ryAusN3MEgj6C2-35" value="Character(&quot;katalina&quot;).moves.png" style="rounded=0;whiteSpace=wrap;html=1;" vertex="1" parent="1">
          <mxGeometry x="1140" y="1371.5" width="170" height="60" as="geometry" />
        </mxCell>
        <mxCell id="EpFmT0ryAusN3MEgj6C2-37" value="Character(&quot;zooey&quot;).moves.png" style="rounded=0;whiteSpace=wrap;html=1;" vertex="1" parent="1">
          <mxGeometry x="1150" y="1481.5" width="170" height="60" as="geometry" />
        </mxCell>
        <mxCell id="EpFmT0ryAusN3MEgj6C2-45" value="" style="aspect=fixed;pointerEvents=1;shadow=0;dashed=0;html=1;strokeColor=none;labelPosition=center;verticalLabelPosition=bottom;verticalAlign=top;align=center;fillColor=#00188D;shape=mxgraph.mscae.enterprise.folder" vertex="1" parent="1">
          <mxGeometry x="900" y="1590" width="50" height="43" as="geometry" />
        </mxCell>
        <mxCell id="EpFmT0ryAusN3MEgj6C2-46" value="" style="endArrow=classic;html=1;exitX=1;exitY=0.5;exitDx=0;exitDy=0;exitPerimeter=0;" edge="1" parent="1" source="EpFmT0ryAusN3MEgj6C2-45">
          <mxGeometry width="50" height="50" relative="1" as="geometry">
            <mxPoint x="970" y="1630" as="sourcePoint" />
            <mxPoint x="1140" y="1612" as="targetPoint" />
          </mxGeometry>
        </mxCell>
        <mxCell id="EpFmT0ryAusN3MEgj6C2-48" value="character_roster[character_id] .(Granblue.Fantasy).jpg" style="rounded=0;whiteSpace=wrap;html=1;" vertex="1" parent="1">
          <mxGeometry x="1140" y="1581.5" width="370" height="60" as="geometry" />
        </mxCell>
        <mxCell id="EpFmT0ryAusN3MEgj6C2-49" value="chracterRoster = [&quot;gran&quot;, &quot;djeeta&quot;, &quot;zeta&quot;, &quot;ferry&quot;, &quot;katalina&quot;, &quot;zooey&quot;]" style="text;html=1;align=center;verticalAlign=middle;resizable=0;points=[];autosize=1;strokeColor=none;" vertex="1" parent="1">
          <mxGeometry x="310" y="850" width="370" height="20" as="geometry" />
        </mxCell>
      </root>
    </mxGraphModel>
  </diagram>
</mxfile>
